/* XPM */
static char * gns3_xpm[] = {
"32 32 299 2",
"  	c None",
". 	c #B1B1E8",
"+ 	c #DDDDFB",
"@ 	c #E7E7FD",
"# 	c #DFDFFC",
"$ 	c #C2C2F2",
"% 	c #8E8EEF",
"& 	c #D5D5FF",
"* 	c #CCCCFD",
"= 	c #C8C8FC",
"- 	c #C6C6FC",
"; 	c #C9C9FE",
"> 	c #A5A5F7",
", 	c #4848D7",
"' 	c #8F8FFD",
") 	c #ABABFB",
"! 	c #A6A6FC",
"~ 	c #A3A3FC",
"{ 	c #A1A1FC",
"] 	c #9E9EFB",
"^ 	c #9797FC",
"/ 	c #5757EC",
"( 	c #C38585",
"_ 	c #C98F8F",
": 	c #B87474",
"< 	c #5858F2",
"[ 	c #6565FA",
"} 	c #8282FA",
"| 	c #8080FA",
"1 	c #7D7DFA",
"2 	c #7A7AFA",
"3 	c #7979FA",
"4 	c #6A6AFA",
"5 	c #5A5AF9",
"6 	c #D09494",
"7 	c #F0D8D8",
"8 	c #F4E1E1",
"9 	c #F3DEDE",
"0 	c #F0D7D7",
"a 	c #E3B8B8",
"b 	c #A95354",
"c 	c #5F5FFA",
"d 	c #6161F9",
"e 	c #6060FA",
"f 	c #6868FA",
"g 	c #6B6BFA",
"h 	c #6969FA",
"i 	c #6161FA",
"j 	c #5A5AFA",
"k 	c #5C5CFB",
"l 	c #4949CB",
"m 	c #BB5353",
"n 	c #E7BDBD",
"o 	c #E0ACAC",
"p 	c #DEA9A9",
"q 	c #DEA6A6",
"r 	c #DCA2A2",
"s 	c #DDA4A4",
"t 	c #D48B8B",
"u 	c #8B0500",
"v 	c #9292FB",
"w 	c #A2A2FA",
"x 	c #8181FA",
"y 	c #7575FB",
"z 	c #7474FB",
"A 	c #5D5DFC",
"B 	c #4A4ACF",
"C 	c #8F0000",
"D 	c #C45B5B",
"E 	c #D18383",
"F 	c #CF7D7D",
"G 	c #CE7A7A",
"H 	c #CD7777",
"I 	c #CB7373",
"J 	c #CA6E6E",
"K 	c #CB7271",
"L 	c #A60F0F",
"M 	c #A1847C",
"N 	c #A5A0F1",
"O 	c #B2B1F8",
"P 	c #9595FB",
"Q 	c #7676FB",
"R 	c #7878FB",
"S 	c #6868FC",
"T 	c #4444C0",
"U 	c #A00000",
"V 	c #AD2020",
"W 	c #C05353",
"X 	c #BE4C4C",
"Y 	c #BC4949",
"Z 	c #BB4646",
"` 	c #BA4343",
" .	c #B94040",
"..	c #B43434",
"+.	c #A40000",
"@.	c #90273C",
"#.	c #9792E4",
"$.	c #B6B5FB",
"%.	c #8585FB",
"&.	c #7777FB",
"*.	c #9191FB",
"=.	c #A0A0FB",
"-.	c #7B0000",
";.	c #A20000",
">.	c #A81111",
",.	c #AB1A1A",
"'.	c #AC1717",
").	c #AC1414",
"!.	c #A91111",
"~.	c #A60E0E",
"{.	c #A30303",
"].	c #A30000",
"^.	c #A00D03",
"/.	c #7D82BB",
"(.	c #7F7DFC",
"_.	c #7676FA",
":.	c #7B7BFB",
"<.	c #B3B3FA",
"[.	c #BCBCF6",
"}.	c #8988DD",
"|.	c #870000",
"1.	c #A50000",
"2.	c #A70000",
"3.	c #B10000",
"4.	c #B50000",
"5.	c #B60000",
"6.	c #B40000",
"7.	c #AF0000",
"8.	c #A10001",
"9.	c #5C5BE0",
"0.	c #7373FF",
"a.	c #7575FA",
"b.	c #7878F8",
"c.	c #ADADFA",
"d.	c #8F90CA",
"e.	c #C8C980",
"f.	c #EBEDA3",
"g.	c #F5F7BA",
"h.	c #F5F6B8",
"i.	c #EEEFA0",
"j.	c #880000",
"k.	c #AB0000",
"l.	c #B80000",
"m.	c #BA0000",
"n.	c #BB0000",
"o.	c #C80000",
"p.	c #C90000",
"q.	c #4C4CC8",
"r.	c #6464F7",
"s.	c #6B6BFC",
"t.	c #6565F5",
"u.	c #7575BA",
"v.	c #E1E384",
"w.	c #F6F7C9",
"x.	c #F6F7CD",
"y.	c #F4F5CA",
"z.	c #F4F5C6",
"A.	c #F5F7C3",
"B.	c #F7F9B6",
"C.	c #E3E564",
"D.	c #7C0000",
"E.	c #A80000",
"F.	c #B70000",
"G.	c #BF0000",
"H.	c #E90000",
"I.	c #FB0000",
"J.	c #EE0504",
"K.	c #262669",
"L.	c #161645",
"M.	c #C7CB13",
"N.	c #F2F4A0",
"O.	c #EBED9D",
"P.	c #EAEC9C",
"Q.	c #EAEB9A",
"R.	c #E9EB97",
"S.	c #E9EB93",
"T.	c #EAEC8E",
"U.	c #F0F384",
"V.	c #D6DA10",
"W.	c #580000",
"X.	c #B90000",
"Y.	c #C10000",
"Z.	c #F30000",
"`.	c #DE0000",
" +	c #BB0E05",
".+	c #B6774A",
"++	c #AEB200",
"@+	c #E2E71D",
"#+	c #E5E77B",
"$+	c #E3E573",
"%+	c #E2E570",
"&+	c #E1E46D",
"*+	c #E0E369",
"=+	c #DFE263",
"-+	c #E1E462",
";+	c #E3E80F",
">+	c #9D0000",
",+	c #BC0000",
"'+	c #D70100",
")+	c #FD0000",
"!+	c #B73E2C",
"~+	c #BE7A4A",
"{+	c #C26728",
"]+	c #CB8834",
"^+	c #E5CA6F",
"/+	c #D7DC06",
"(+	c #D2D701",
"_+	c #D8DB3D",
":+	c #DBDE49",
"<+	c #DADE45",
"[+	c #D9DD42",
"}+	c #D9DD3F",
"|+	c #D9DC3C",
"1+	c #D8DC39",
"2+	c #D4D828",
"3+	c #D7DD00",
"4+	c #D4D801",
"5+	c #5B0000",
"6+	c #B30000",
"7+	c #C00000",
"8+	c #AA0101",
"9+	c #E8CB7C",
"0+	c #CD9F39",
"a+	c #B1981B",
"b+	c #DAE000",
"c+	c #CED200",
"d+	c #CDD204",
"e+	c #D0D515",
"f+	c #D3D716",
"g+	c #D6DA14",
"h+	c #D6DA12",
"i+	c #D2D70E",
"j+	c #CED30A",
"k+	c #CCD101",
"l+	c #D1D600",
"m+	c #DBE000",
"n+	c #6F0000",
"o+	c #B00000",
"p+	c #B3B63B",
"q+	c #D8DD00",
"r+	c #D0D500",
"s+	c #E2E502",
"t+	c #F1F206",
"u+	c #F6F707",
"v+	c #F7F707",
"w+	c #F2F406",
"x+	c #E7E903",
"y+	c #D3D801",
"z+	c #4C0000",
"A+	c #A60000",
"B+	c #9C0000",
"C+	c #740000",
"D+	c #9A9D0D",
"E+	c #D7DC00",
"F+	c #D2D600",
"G+	c #F0F206",
"H+	c #FCFD0A",
"I+	c #F5F607",
"J+	c #D9DC01",
"K+	c #D9DE00",
"L+	c #D6DC00",
"M+	c #E9EA03",
"N+	c #FDFD0A",
"O+	c #F1F204",
"P+	c #DADF00",
"Q+	c #D5DB00",
"R+	c #F5F505",
"S+	c #FBFC09",
"T+	c #FAFA06",
"U+	c #D9DD00",
"V+	c #BCC100",
"W+	c #F6F704",
"X+	c #FBFB08",
"Y+	c #FAFA08",
"Z+	c #FCFD05",
"`+	c #B8BB00",
" @	c #5C5E00",
".@	c #EBEE02",
"+@	c #FAF906",
"@@	c #FAFA07",
"#@	c #EEF003",
"$@	c #959800",
"%@	c #F2F402",
"&@	c #F8F806",
"*@	c #FAFB08",
"=@	c #F4F603",
"-@	c #888A00",
";@	c #888C00",
">@	c #DCE001",
",@	c #EEF002",
"'@	c #F3F503",
")@	c #F4F504",
"!@	c #F1F302",
"~@	c #7B7E00",
"{@	c #2E3000",
"]@	c #868900",
"^@	c #A6AA00",
"/@	c #A5A900",
"(@	c #7F8300",
"                                                                ",
"                                                                ",
"                                                                ",
"                                                                ",
"                              . + @ # $                         ",
"                            % & * = - ; >                       ",
"                          , ' ) ! ~ { ] ^ /                     ",
"            ( _ :         < [ } | 1 2 3 4 5                     ",
"        6 7 8 9 0 a b     c d e f g h i j k l                   ",
"      m n o p q r s t u   v w x y y y z g A B                   ",
"    C D E F G H I J K L M N O P z y y Q R S T                   ",
"    U V W X Y Z `  ...+.@.#.$.%.y y &.*.=.3                     ",
"  -.+.;.>.,.'.).!.~.{.].^./.(._.y y :.<.[.}.                    ",
"  |.1.].2.3.4.5.6.7.2.].8.  9.0.a.a.b.c.d.e.f.g.h.i.            ",
"  j.+.k.l.m.m.m.m.n.o.p.4.    q.r.s.t.u.v.w.x.y.z.A.B.C.        ",
"  D.E.F.m.m.m.m.m.G.H.I.J.        K.L.M.N.O.P.Q.R.S.T.U.V.      ",
"  W.k.X.m.m.m.m.m.Y.Z.`. +.+        ++@+#+$+$+%+&+*+=+-+;+      ",
"    >+X.m.m.m.m.m.,+'+)+!+~+{+]+^+  /+(+_+:+<+[+}+|+1+2+3+4+    ",
"    5+6+X.m.m.m.m.m.7+8+      9+0+a+b+c+d+e+f+g+h+i+j+k+l+m+    ",
"      n+o+l.l.l.X.l.>+            p+q+k+r+s+t+u+v+w+x+y+c+m+    ",
"        z+C ].A+B+C+              D+E+F+G+H+H+H+H+H+H+I+J+K+    ",
"                                    L+M+N+H+H+H+H+H+H+H+O+P+    ",
"                                    Q+R+H+H+H+H+H+H+H+S+T+U+    ",
"                                    V+W+X+H+H+H+H+H+H+Y+Z+`+    ",
"                                     @.@+@S+H+H+H+H+X+@@#@      ",
"                                      $@%@&@*@S+S+*@T+=@-@      ",
"                                        ;@>@,@'@)@!@>@~@        ",
"                                          {@]@^@/@(@            ",
"                                                                ",
"                                                                ",
"                                                                ",
"                                                                "};
